HIERARCHY
ROOT Hips
{
	OFFSET 0.00000 0.00000 0.00000
	CHANNELS 6 Xposition Yposition Zposition Zrotation Yrotation Xrotation 
	JOINT LHipJoint
	{
		OFFSET 0 0 0
		CHANNELS 3 Zrotation Yrotation Xrotation
		JOINT LeftUpLeg
		{
			OFFSET 1.76014 -1.80163 0.38499
			CHANNELS 3 Zrotation Yrotation Xrotation
			JOINT LeftLeg
			{
				OFFSET 2.46817 -6.78126 0.00000
				CHANNELS 3 Zrotation Yrotation Xrotation
				JOINT LeftFoot
				{
					OFFSET 2.79348 -7.67503 0.00000
					CHANNELS 3 Zrotation Yrotation Xrotation
					JOINT LeftToeBase
					{
						OFFSET 0.09421 -0.25885 1.91403
						CHANNELS 3 Zrotation Yrotation Xrotation
						End Site
						{
							OFFSET 0.00000 -0.00000 0.97975
						}
					}
				}
			}
		}
	}
	JOINT RHipJoint
	{
		OFFSET 0 0 0
		CHANNELS 3 Zrotation Yrotation Xrotation
		JOINT RightUpLeg
		{
			OFFSET -1.77926 -1.80163 0.38499
			CHANNELS 3 Zrotation Yrotation Xrotation
			JOINT RightLeg
			{
				OFFSET -2.51996 -6.92353 0.00000
				CHANNELS 3 Zrotation Yrotation Xrotation
				JOINT RightFoot
				{
					OFFSET -2.76109 -7.58603 0.00000
					CHANNELS 3 Zrotation Yrotation Xrotation
					JOINT RightToeBase
					{
						OFFSET -0.08067 -0.22163 1.86812
						CHANNELS 3 Zrotation Yrotation Xrotation
						End Site
						{
							OFFSET -0.00000 -0.00000 0.95558
						}
					}
				}
			}
		}
	}
	JOINT LowerBack
	{
		OFFSET 0 0 0
		CHANNELS 3 Zrotation Yrotation Xrotation
		JOINT Spine
		{
			OFFSET 0.05537 1.92033 -0.03713
			CHANNELS 3 Zrotation Yrotation Xrotation
			JOINT Spine1
			{
				OFFSET 0.04452 1.90073 0.10860
				CHANNELS 3 Zrotation Yrotation Xrotation
				JOINT Neck
				{
					OFFSET 0 0 0
					CHANNELS 3 Zrotation Yrotation Xrotation
					JOINT Neck1
					{
						OFFSET 0.00903 1.74649 0.02074
						CHANNELS 3 Zrotation Yrotation Xrotation
						JOINT Head
						{
							OFFSET -0.08608 1.67844 -0.12081
							CHANNELS 3 Zrotation Yrotation Xrotation
							End Site
							{
								OFFSET -0.03521 1.83380 -0.05059
							}
						}
					}
				}
				JOINT LeftShoulder
				{
					OFFSET 0 0 0
					CHANNELS 3 Zrotation Yrotation Xrotation
					JOINT LeftArm
					{
						OFFSET 3.28197 0.84325 -0.19106
						CHANNELS 3 Zrotation Yrotation Xrotation
						JOINT LeftForeArm
						{
							OFFSET 5.24318 -0.00000 -0.00000
							CHANNELS 3 Zrotation Yrotation Xrotation
							JOINT LeftHand
							{
								OFFSET 2.98999 -0.00000 0.00000
								CHANNELS 3 Zrotation Yrotation Xrotation
								JOINT LeftFingerBase
								{
									OFFSET 0 0 0
									CHANNELS 3 Zrotation Yrotation Xrotation
									JOINT LeftHandIndex1
									{
										OFFSET 0.72674 -0.00000 0.00000
										CHANNELS 3 Zrotation Yrotation Xrotation
										End Site
										{
											OFFSET 0.58592 -0.00000 0.00000
										}
									}
								}
								JOINT LThumb
								{
									OFFSET 0 0 0
									CHANNELS 3 Zrotation Yrotation Xrotation
									End Site
									{
										OFFSET 0.59487 -0.00000 0.59487
									}
								}
							}
						}
					}
				}
				JOINT RightShoulder
				{
					OFFSET 0 0 0
					CHANNELS 3 Zrotation Yrotation Xrotation
					JOINT RightArm
					{
						OFFSET -3.30963 0.78377 0.14264
						CHANNELS 3 Zrotation Yrotation Xrotation
						JOINT RightForeArm
						{
							OFFSET -5.37045 -0.00000 0.00000
							CHANNELS 3 Zrotation Yrotation Xrotation
							JOINT RightHand
							{
								OFFSET -2.92792 -0.00000 0.00000
								CHANNELS 3 Zrotation Yrotation Xrotation
								JOINT RightFingerBase
								{
									OFFSET 0 0 0
									CHANNELS 3 Zrotation Yrotation Xrotation
									JOINT RightHandIndex1
									{
										OFFSET -0.78450 -0.00000 0.00000
										CHANNELS 3 Zrotation Yrotation Xrotation
										End Site
										{
											OFFSET -0.63248 -0.00000 0.00000
										}
									}
								}
								JOINT RThumb
								{
									OFFSET 0 0 0
									CHANNELS 3 Zrotation Yrotation Xrotation
									End Site
									{
										OFFSET -0.64214 -0.00000 0.64214
									}
								}
							}
						}
					}
				}
			}
		}
	}
}
MOTION
Frames: 6
Frame Time: .0083333
0.2698 18.3088 0.2146 -2.9389 -3.7910 10.2655 0.0000 0.0000 0.0000 -14.6130 -28.5381 -3.8751 0.7874 5.6645 15.8140 -2.1631 25.4647 -15.4984 0.2242 -3.0481 -8.4127 0.0000 0.0000 0.0000 0.0000 0.0000 0.0000 0.0000 0.0000 0.0000 -0.0000 -0.0000 0.0000 -0.0000 -0.0000 0.0000 3.1460 -0.2409 -4.6005 2.9278 -0.4382 -3.0576 1.2257 -0.2402 -0.5659 3.2646 0.9515 -8.3896 -6.6151 1.6220 10.2503 -2.4728 0.5334 4.5228 -0.0000 0.0000 0.0000 -90.5716 4.3631 13.9147 11.3589 -18.8362 -1.8902 -0.0000 -0.0000 19.5743 6.9680 15.6387 1.8870 -7.1250 0.0000 -0.0000 -19.0942 44.8360 0.0803 -0.0000 0.0000 0.0000 85.6531 -7.7934 -3.2344 -16.1350 25.7033 -3.7043 0.0000 0.0000 30.5242 -2.9527 8.6113 -0.4425 7.1250 -0.0000 -0.0000 17.1190 -21.4781 10.1131
0.2700 18.3097 0.2134 -2.8892 -3.7822 10.2405 0.0000 0.0000 0.0000 -14.6878 -28.5693 -3.8089 0.7836 5.6513 15.7759 -2.1642 25.4851 -15.5881 0.2224 -3.0358 -8.3784 0.0000 0.0000 0.0000 0.0000 0.0000 0.0000 0.0000 0.0000 0.0000 -0.0000 -0.0000 0.0000 -0.0000 -0.0000 0.0000 3.0999 -0.2507 -4.5664 2.9105 -0.4477 -3.0581 1.2335 -0.2446 -0.5851 3.2955 0.9688 -8.4270 -6.6514 1.6474 10.3013 -2.4878 0.5436 4.5465 0.0000 -0.0000 0.0000 -90.5904 4.3450 14.1426 11.4663 -18.9995 -1.9250 -0.0000 -0.0000 19.3748 6.9444 15.6737 1.8846 -7.1250 0.0000 -0.0000 -19.1276 44.8665 0.0655 0.0000 -0.0000 0.0000 85.7082 -7.7210 -2.7980 -16.2213 25.8198 -3.7418 0.0000 0.0000 30.3258 -3.0192 8.5944 -0.4516 7.1250 -0.0000 -0.0000 17.0745 -21.4932 10.0782
0.2697 18.3103 0.2120 -2.7663 -3.7584 10.2057 0.0000 0.0000 0.0000 -14.8322 -28.5916 -3.7551 0.7794 5.6366 15.7335 -2.1627 25.4649 -15.5125 0.2213 -3.0282 -8.3573 0.0000 0.0000 0.0000 0.0000 0.0000 0.0000 0.0000 0.0000 0.0000 -0.0000 -0.0000 0.0000 -0.0000 -0.0000 0.0000 2.9614 -0.2622 -4.5471 2.8727 -0.4576 -3.0474 1.2717 -0.2478 -0.5837 3.3098 0.9789 -8.4244 -6.6552 1.6591 10.2864 -2.4905 0.5500 4.5423 -0.0000 0.0000 0.0000 -90.5718 4.3579 14.5693 11.5912 -19.1887 -1.9658 -0.0000 -0.0000 19.0678 7.0166 15.8800 1.9288 -7.1250 0.0000 -0.0000 -19.1380 45.0704 -0.0345 -0.0000 0.0000 0.0000 85.7809 -7.6358 -2.3286 -16.3185 25.9505 -3.7842 0.0000 0.0000 30.0743 -3.0858 8.4922 -0.4561 7.1250 -0.0000 -0.0000 17.0393 -21.5902 10.0160
0.2698 18.3103 0.2110 -2.7527 -3.7192 10.1764 0.0000 0.0000 0.0000 -14.8608 -28.5777 -3.7075 0.7749 5.6204 15.6870 -2.1748 25.4869 -15.2997 0.2388 -3.1449 -8.6824 0.0000 0.0000 0.0000 0.0000 0.0000 0.0000 0.0000 0.0000 0.0000 -0.0000 -0.0000 0.0000 -0.0000 -0.0000 0.0000 2.9584 -0.2580 -4.5760 2.8486 -0.4547 -3.0116 1.2483 -0.2459 -0.5308 3.3307 0.9632 -8.4034 -6.6302 1.6302 10.2376 -2.4877 0.5390 4.5222 0.0000 -0.0000 0.0000 -90.5368 4.3346 15.0107 11.7274 -19.3946 -2.0109 -0.0000 -0.0000 18.7725 7.0392 15.9183 1.9396 -7.1250 0.0000 -0.0000 -19.1320 45.1094 -0.0537 0.0000 -0.0000 0.0000 85.8966 -7.5009 -1.9765 -16.4022 26.0629 -3.8209 0.0000 0.0000 29.8896 -3.1199 8.4596 -0.4594 7.1250 -0.0000 -0.0000 17.0191 -21.6210 9.9904
0.2705 18.3113 0.2099 -2.7313 -3.7089 10.1422 0.0000 0.0000 0.0000 -14.9094 -28.5830 -3.6480 0.7720 5.6103 15.6579 -2.1749 25.4942 -15.3408 0.2407 -3.1575 -8.7175 0.0000 0.0000 0.0000 0.0000 0.0000 0.0000 0.0000 0.0000 0.0000 -0.0000 -0.0000 0.0000 -0.0000 -0.0000 0.0000 2.9343 -0.2575 -4.5683 2.8465 -0.4533 -2.9991 1.2595 -0.2448 -0.5220 3.3167 0.9637 -8.3875 -6.6366 1.6349 10.2612 -2.4873 0.5404 4.5270 -0.0000 -0.0000 0.0000 -90.5612 4.3026 15.2843 11.8408 -19.5654 -2.0487 -0.0000 -0.0000 18.5631 6.9744 15.9258 1.9225 -7.1250 0.0000 -0.0000 -19.1920 45.1088 -0.0536 -0.0000 -0.0000 0.0000 85.9706 -7.4130 -1.6748 -16.5037 26.1989 -3.8657 0.0000 0.0000 29.8270 -3.1569 8.5765 -0.4713 7.1250 -0.0000 -0.0000 16.9804 -21.5086 10.0112
0.2704 18.3111 0.2092 -2.7351 -3.6991 10.1298 0.0000 0.0000 0.0000 -14.9243 -28.7005 -3.5736 0.7711 5.6069 15.6481 -2.1703 25.5223 -15.6347 0.2077 -2.9344 -8.0963 0.0000 0.0000 0.0000 0.0000 0.0000 0.0000 0.0000 0.0000 0.0000 -0.0000 -0.0000 0.0000 -0.0000 -0.0000 0.0000 2.9332 -0.2554 -4.5663 2.8475 -0.4499 -3.0090 1.2614 -0.2432 -0.5333 3.3317 0.9786 -8.3993 -6.6606 1.6600 10.3489 -2.4961 0.5506 4.5574 0.0000 -0.0000 0.0000 -90.5762 4.3057 15.5858 11.9579 -19.7415 -2.0881 -0.0000 -0.0000 18.2696 6.9130 15.9715 1.9107 -7.1250 0.0000 -0.0000 -19.2630 45.1449 -0.0716 0.0000 -0.0000 0.0000 86.0458 -7.3395 -1.3910 -16.5803 26.3012 -3.8996 0.0000 0.0000 29.8024 -3.2065 8.8018 -0.4912 7.1250 -0.0000 -0.0000 16.9213 -21.2920 10.0606
